<svg style="position: absolute; width: 0; height: 0; overflow: hidden;" version="1.1" xmlns="http://www.w3.org/2000/svg" xmlns:xlink="http://www.w3.org/1999/xlink">
<defs>
<symbol id="play" viewBox="0 0 512 512">
    <path d="M176 480C148.615 480 128 457.608 128 432V80C128 54.62 148.396 32.017 176.012 32.017C184.698 32.017 193.366 34.368 201.031 39.047L489.031 215.047C503.297 223.766 512 239.281 512 256S503.297 288.234 489.031 296.953L201.031 472.953C193.359 477.641 184.688 480 176 480Z"></path>
  </symbol>
  <symbol id="pause" viewBox="0 0 320 512">
    <path d="M56 64C42.75 64 32 74.75 32 88V424C32 437.25 42.75 448 56 448S80 437.25 80 424V88C80 74.75 69.25 64 56 64ZM264 64C250.75 64 240 74.75 240 88V424C240 437.25 250.75 448 264 448S288 437.25 288 424V88C288 74.75 277.25 64 264 64Z"></path>
  </symbol>
  <symbol id="bars" viewBox="0 0 448 512">
    <path d="M424 392H24C10.8 392 0 402.8 0 416V416C0 429.2 10.8 440 24 440H424C437.2 440 448 429.2 448 416V416C448 402.8 437.2 392 424 392ZM424 72H24C10.8 72 0 82.8 0 96V96C0 109.2 10.8 120 24 120H424C437.2 120 448 109.2 448 96V96C448 82.8 437.2 72 424 72ZM424 232H24C10.8 232 0 242.8 0 256V256C0 269.2 10.8 280 24 280H424C437.2 280 448 269.2 448 256V256C448 242.8 437.2 232 424 232Z"></path>
  </symbol>
  <symbol id="volume" viewBox="0 0 576 512">
    <path d="M333.109 34.818C328.908 32.922 324.443 31.998 320.014 31.998C312.316 31.998 304.715 34.783 298.734 40.1L163.84 160.004H80C53.49 160.004 32 181.496 32 208.004V304.002C32 330.51 53.49 352.002 80 352.002H163.84L298.734 471.906C304.719 477.219 312.312 480 320 480C324.438 480 328.906 479.094 333.109 477.188C344.609 472.031 352 460.594 352 448V64.006C352 51.412 344.609 39.975 333.109 34.818ZM304 412.365L182.09 304.002H80V208.004H182.09L304 99.641V412.365ZM444.562 181.941C440.092 178.312 434.705 176.541 429.359 176.541C422.41 176.541 415.529 179.535 410.812 185.348C402.406 195.598 403.906 210.723 414.188 219.129C425.5 228.379 432 241.814 432 256.002S425.5 283.627 414.188 292.877C403.906 301.283 402.406 316.408 410.812 326.658C415.531 332.471 422.437 335.471 429.375 335.471C434.719 335.471 440.125 333.689 444.562 330.064C467.094 311.627 480 284.658 480 256.002C480 227.348 467.094 200.379 444.562 181.941ZM505.125 108.004C500.67 104.367 495.283 102.588 489.924 102.588C482.99 102.588 476.104 105.566 471.344 111.348C462.938 121.598 464.438 136.723 474.688 145.129C508.562 172.91 528 213.316 528 256.002C528 298.689 508.562 339.096 474.688 366.877C464.438 375.283 462.938 390.406 471.344 400.656C476.094 406.438 482.969 409.438 489.906 409.438C495.281 409.438 500.656 407.656 505.125 404C550.156 367.096 576 313.127 576 256.002C576 198.879 550.156 144.91 505.125 108.004Z"></path>
  </symbol>
   <symbol id="facebook" viewBox="0 0 448 512">
    <path d="M400 32H48A48 48 0 0 0 0 80v352a48 48 0 0 0 48 48h137.25V327.69h-63V256h63v-54.64c0-62.15 37-96.48 93.67-96.48 27.14 0 55.52 4.84 55.52 4.84v61h-31.27c-30.81 0-40.42 19.12-40.42 38.73V256h68.78l-11 71.69h-57.78V480H400a48 48 0 0 0 48-48V80a48 48 0 0 0-48-48z"></path>
  </symbol>
  <symbol id="twitter" viewBox="0 0 448 512">
    <path d="M400 32H48C21.5 32 0 53.5 0 80v352c0 26.5 21.5 48 48 48h352c26.5 0 48-21.5 48-48V80c0-26.5-21.5-48-48-48zm-48.9 158.8c.2 2.8.2 5.7.2 8.5 0 86.7-66 186.6-186.6 186.6-37.2 0-71.7-10.8-100.7-29.4 5.3.6 10.4.8 15.8.8 30.7 0 58.9-10.4 81.4-28-28.8-.6-53-19.5-61.3-45.5 10.1 1.5 19.2 1.5 29.6-1.2-30-6.1-52.5-32.5-52.5-64.4v-.8c8.7 4.9 18.9 7.9 29.6 8.3a65.447 65.447 0 0 1-29.2-54.6c0-12.2 3.2-23.4 8.9-33.1 32.3 39.8 80.8 65.8 135.2 68.6-9.3-44.5 24-80.6 64-80.6 18.9 0 35.9 7.9 47.9 20.7 14.8-2.8 29-8.3 41.6-15.8-4.9 15.2-15.2 28-28.8 36.1 13.2-1.4 26-5.1 37.8-10.2-8.9 13.1-20.1 24.7-32.9 34z"></path>
  </symbol>
  <symbol id="instagram" viewBox="0 0 448 512">
    <path d="M224,202.66A53.34,53.34,0,1,0,277.36,256,53.38,53.38,0,0,0,224,202.66Zm124.71-41a54,54,0,0,0-30.41-30.41c-21-8.29-71-6.43-94.3-6.43s-73.25-1.93-94.31,6.43a54,54,0,0,0-30.41,30.41c-8.28,21-6.43,71.05-6.43,94.33S91,329.26,99.32,350.33a54,54,0,0,0,30.41,30.41c21,8.29,71,6.43,94.31,6.43s73.24,1.93,94.3-6.43a54,54,0,0,0,30.41-30.41c8.35-21,6.43-71.05,6.43-94.33S357.1,182.74,348.75,161.67ZM224,338a82,82,0,1,1,82-82A81.9,81.9,0,0,1,224,338Zm85.38-148.3a19.14,19.14,0,1,1,19.13-19.14A19.1,19.1,0,0,1,309.42,189.74ZM400,32H48A48,48,0,0,0,0,80V432a48,48,0,0,0,48,48H400a48,48,0,0,0,48-48V80A48,48,0,0,0,400,32ZM382.88,322c-1.29,25.63-7.14,48.34-25.85,67s-41.4,24.63-67,25.85c-26.41,1.49-105.59,1.49-132,0-25.63-1.29-48.26-7.15-67-25.85s-24.63-41.42-25.85-67c-1.49-26.42-1.49-105.61,0-132,1.29-25.63,7.07-48.34,25.85-67s41.47-24.56,67-25.78c26.41-1.49,105.59-1.49,132,0,25.63,1.29,48.33,7.15,67,25.85s24.63,41.42,25.85,67.05C384.37,216.44,384.37,295.56,382.88,322Z"></path>
  </symbol>
  <symbol id="youtube" viewBox="0 0 448 512">
    <path d="M186.8 202.1l95.2 54.1-95.2 54.1V202.1zM448 80v352c0 26.5-21.5 48-48 48H48c-26.5 0-48-21.5-48-48V80c0-26.5 21.5-48 48-48h352c26.5 0 48 21.5 48 48zm-42 176.3s0-59.6-7.6-88.2c-4.2-15.8-16.5-28.2-32.2-32.4C337.9 128 224 128 224 128s-113.9 0-142.2 7.7c-15.7 4.2-28 16.6-32.2 32.4-7.6 28.5-7.6 88.2-7.6 88.2s0 59.6 7.6 88.2c4.2 15.8 16.5 27.7 32.2 31.9C110.1 384 224 384 224 384s113.9 0 142.2-7.7c15.7-4.2 28-16.1 32.2-31.9 7.6-28.5 7.6-88.1 7.6-88.1z"></path>
  </symbol>
</defs>
</svg>
