<svg style="position: absolute; width: 0; height: 0; overflow: hidden;" version="1.1" xmlns="http://www.w3.org/2000/svg" xmlns:xlink="http://www.w3.org/1999/xlink">
<defs>
<symbol id="play" viewBox="0 0 512 512">
    <path d="M176 480C148.615 480 128 457.608 128 432V80C128 54.62 148.396 32.017 176.012 32.017C184.698 32.017 193.366 34.368 201.031 39.047L489.031 215.047C503.297 223.766 512 239.281 512 256S503.297 288.234 489.031 296.953L201.031 472.953C193.359 477.641 184.688 480 176 480Z"></path>
  </symbol>
  <symbol id="database" viewBox="0 0 448 512">
    <path d="M224 0C100.289 0 0 35.816 0 80V432C0 476.182 100.289 512 224 512S448 476.182 448 432V80C448 35.816 347.711 0 224 0ZM432 325.682C407.273 347.686 326.463 368 224 368S40.727 347.686 16 325.682V184.539C56.129 210.217 141.539 224 224 224S391.871 210.217 432 184.539V325.682ZM224 16C350.973 16 432 53.904 432 80V165.682C407.273 187.686 326.463 208 224 208S40.727 187.686 16 165.682V80C16 53.904 97.027 16 224 16ZM224 496C97.027 496 16 458.096 16 432V344.539C56.129 370.217 141.539 384 224 384S391.871 370.217 432 344.539V432C432 458.096 350.973 496 224 496Z"></path>
  </symbol>
  <symbol id="agriculture" viewBox="0 0 512 512">
    <path d="M167.828 63.78C169.828 63.905 171.922 63.998 174.109 63.998C186.203 63.998 200.781 61.498 211.313 51.717C211.469 51.592 211.594 51.451 211.734 51.31C223.938 38.185 224.547 18.309 223.813 7.621C223.531 3.637 220.359 0.465 216.375 0.183C205.844 -0.473 185.953 0.074 172.641 12.465C157.219 27.997 160.062 53.92 160.438 56.826C160.922 60.608 164.031 63.514 167.828 63.78ZM183.766 23.965C190.219 17.965 200.062 16.262 207.984 16.012C207.656 26.387 204.938 34.966 200.219 40.185C194.906 44.998 186.469 47.67 176.016 47.966C176.156 40.482 177.766 29.997 183.766 23.965ZM360.344 63.78C362.328 63.905 364.438 63.998 366.625 63.998C378.719 63.998 393.297 61.498 403.844 51.717C403.984 51.592 404.125 51.451 404.266 51.295C416.469 38.169 417.062 18.293 416.328 7.621C416.047 3.637 412.875 0.465 408.891 0.183C398.187 -0.489 378.453 0.09 365.156 12.465C349.734 27.997 352.578 53.92 352.953 56.826C353.438 60.608 356.547 63.514 360.344 63.78ZM376.281 23.965C382.766 17.918 392.922 16.309 400.5 16.028C400.172 26.403 397.453 34.966 392.75 40.2C387.422 44.998 378.984 47.67 368.531 47.966C368.672 40.482 370.281 29.997 376.281 23.965ZM80 447.998C88.875 447.998 96 440.872 96 431.997C96 423.122 88.875 415.996 80 415.996S64 423.122 64 431.997C64 440.872 71.125 447.998 80 447.998ZM480 223.989H32C14.328 223.989 0 238.316 0 255.99V479.999C0 497.671 14.328 512 32 512H480C497.674 512 512 497.671 512 479.999V255.99C512 238.316 497.674 223.989 480 223.989ZM496 479.999C496 488.821 488.822 495.999 480 495.999H32C23.178 495.999 16 488.821 16 479.999V375.995H496V479.999ZM496 359.994H16V255.99C16 247.167 23.178 239.989 32 239.989H480C488.822 239.989 496 247.167 496 255.99V359.994ZM432 287.991C423.125 287.991 416 295.117 416 303.992S423.125 319.993 432 319.993S448 312.867 448 303.992S440.875 287.991 432 287.991ZM80 287.991C71.125 287.991 64 295.117 64 303.992S71.125 319.993 80 319.993S96 312.867 96 303.992S88.875 287.991 80 287.991ZM432 447.998C440.875 447.998 448 440.872 448 431.997C448 423.122 440.875 415.996 432 415.996S416 423.122 416 431.997C416 440.872 423.125 447.998 432 447.998ZM302.656 89.906C318.359 92.593 335.625 98.453 347.719 105.219L351.625 107.391L355.516 105.219C376.047 93.781 407.516 85.89 422.719 88.484C459.703 95.124 471.953 139.673 471.203 175.815C471.109 180.237 474.625 183.894 479.031 183.987H479.203C483.547 183.987 487.109 180.518 487.203 176.159C488.078 133.704 472.453 81.155 425.437 72.717C405.531 69.467 372.828 78.421 351.625 89.171C338.328 82.405 321.375 76.874 305.344 74.124C301.094 73.405 296.859 76.311 296.109 80.671C295.375 85.015 298.297 89.156 302.656 89.906ZM32.703 183.987C37.125 183.894 40.641 180.237 40.547 175.831C39.812 139.689 52.031 95.124 88.812 88.499C103.938 85.89 135.562 93.749 156.109 105.219L160 107.391L163.891 105.219C184.422 93.781 216 85.89 231.078 88.484C267.984 95.124 280.203 139.673 279.453 175.815C279.359 180.237 282.875 183.894 287.281 183.987H287.453C291.797 183.987 295.359 180.518 295.453 176.159C296.328 133.704 280.734 81.155 233.813 72.717C213.906 69.467 181.203 78.421 160 89.171C138.828 78.421 106.234 69.514 86.078 72.733C39.281 81.171 23.688 133.704 24.547 176.143C24.641 180.565 27.703 183.722 32.703 183.987Z"></path>
  </symbol>
   <symbol id="facebook" viewBox="0 0 448 512">
    <path d="M400 32H48A48 48 0 0 0 0 80v352a48 48 0 0 0 48 48h137.25V327.69h-63V256h63v-54.64c0-62.15 37-96.48 93.67-96.48 27.14 0 55.52 4.84 55.52 4.84v61h-31.27c-30.81 0-40.42 19.12-40.42 38.73V256h68.78l-11 71.69h-57.78V480H400a48 48 0 0 0 48-48V80a48 48 0 0 0-48-48z"></path>
  </symbol>
  <symbol id="twitter" viewBox="0 0 448 512">
    <path d="M400 32H48C21.5 32 0 53.5 0 80v352c0 26.5 21.5 48 48 48h352c26.5 0 48-21.5 48-48V80c0-26.5-21.5-48-48-48zm-48.9 158.8c.2 2.8.2 5.7.2 8.5 0 86.7-66 186.6-186.6 186.6-37.2 0-71.7-10.8-100.7-29.4 5.3.6 10.4.8 15.8.8 30.7 0 58.9-10.4 81.4-28-28.8-.6-53-19.5-61.3-45.5 10.1 1.5 19.2 1.5 29.6-1.2-30-6.1-52.5-32.5-52.5-64.4v-.8c8.7 4.9 18.9 7.9 29.6 8.3a65.447 65.447 0 0 1-29.2-54.6c0-12.2 3.2-23.4 8.9-33.1 32.3 39.8 80.8 65.8 135.2 68.6-9.3-44.5 24-80.6 64-80.6 18.9 0 35.9 7.9 47.9 20.7 14.8-2.8 29-8.3 41.6-15.8-4.9 15.2-15.2 28-28.8 36.1 13.2-1.4 26-5.1 37.8-10.2-8.9 13.1-20.1 24.7-32.9 34z"></path>
  </symbol>
  <symbol id="instagram" viewBox="0 0 448 512">
    <path d="M224,202.66A53.34,53.34,0,1,0,277.36,256,53.38,53.38,0,0,0,224,202.66Zm124.71-41a54,54,0,0,0-30.41-30.41c-21-8.29-71-6.43-94.3-6.43s-73.25-1.93-94.31,6.43a54,54,0,0,0-30.41,30.41c-8.28,21-6.43,71.05-6.43,94.33S91,329.26,99.32,350.33a54,54,0,0,0,30.41,30.41c21,8.29,71,6.43,94.31,6.43s73.24,1.93,94.3-6.43a54,54,0,0,0,30.41-30.41c8.35-21,6.43-71.05,6.43-94.33S357.1,182.74,348.75,161.67ZM224,338a82,82,0,1,1,82-82A81.9,81.9,0,0,1,224,338Zm85.38-148.3a19.14,19.14,0,1,1,19.13-19.14A19.1,19.1,0,0,1,309.42,189.74ZM400,32H48A48,48,0,0,0,0,80V432a48,48,0,0,0,48,48H400a48,48,0,0,0,48-48V80A48,48,0,0,0,400,32ZM382.88,322c-1.29,25.63-7.14,48.34-25.85,67s-41.4,24.63-67,25.85c-26.41,1.49-105.59,1.49-132,0-25.63-1.29-48.26-7.15-67-25.85s-24.63-41.42-25.85-67c-1.49-26.42-1.49-105.61,0-132,1.29-25.63,7.07-48.34,25.85-67s41.47-24.56,67-25.78c26.41-1.49,105.59-1.49,132,0,25.63,1.29,48.33,7.15,67,25.85s24.63,41.42,25.85,67.05C384.37,216.44,384.37,295.56,382.88,322Z"></path>
  </symbol>
  <symbol id="youtube" viewBox="0 0 448 512">
    <path d="M186.8 202.1l95.2 54.1-95.2 54.1V202.1zM448 80v352c0 26.5-21.5 48-48 48H48c-26.5 0-48-21.5-48-48V80c0-26.5 21.5-48 48-48h352c26.5 0 48 21.5 48 48zm-42 176.3s0-59.6-7.6-88.2c-4.2-15.8-16.5-28.2-32.2-32.4C337.9 128 224 128 224 128s-113.9 0-142.2 7.7c-15.7 4.2-28 16.6-32.2 32.4-7.6 28.5-7.6 88.2-7.6 88.2s0 59.6 7.6 88.2c4.2 15.8 16.5 27.7 32.2 31.9C110.1 384 224 384 224 384s113.9 0 142.2-7.7c15.7-4.2 28-16.1 32.2-31.9 7.6-28.5 7.6-88.1 7.6-88.1z"></path>
  </symbol>
</defs>
</svg>
